<svg width="24" height="24" viewBox="0 0 24 24" fill="none" xmlns="http://www.w3.org/2000/svg">
  <path d="M9 18H15" stroke="currentColor" stroke-width="2" stroke-linecap="round" stroke-linejoin="round"/>
  <path d="M10 22H14" stroke="currentColor" stroke-width="2" stroke-linecap="round" stroke-linejoin="round"/>
  <path d="M15.09 14C15.324 13.3922 15.7068 12.8494 16.1947 12.4185C17.1624 11.5373 17.8289 10.3778 18.0813 9.10797C18.3336 7.83812 18.1591 6.52552 17.5827 5.35859C17.0063 4.19167 16.0595 3.23191 14.8824 2.62294C13.7053 2.01397 12.3641 1.78751 11.0584 1.97803C9.75276 2.16854 8.54784 2.76825 7.60474 3.69127C6.66164 4.61428 6.02749 5.81074 5.79715 7.11013C5.56681 8.40951 5.7509 9.74716 6.32 10.92C6.86 12.03 7.5 12.95 8.41 13.79C8.87007 14.2205 9.23071 14.7435 9.47 15.33" stroke="currentColor" stroke-width="2" stroke-linecap="round" stroke-linejoin="round"/>
</svg> 