<svg width="24" height="24" viewBox="0 0 24 24" fill="none" xmlns="http://www.w3.org/2000/svg">
  <path d="M12 6C9.33333 6 7.66667 7.33333 7 10C8.33333 8.66667 9.66667 8.33333 11 9C11.7316 9.36631 12.2795 9.91435 12.7731 10.4109C13.6335 11.2773 14.6059 12.25 17 12.25C19.6667 12.25 21.3333 10.9167 22 8.25C20.6667 9.58333 19.3333 9.91667 18 9.25C17.2684 8.88369 16.7205 8.33565 16.2269 7.83911C15.3665 6.97271 14.3941 6 12 6ZM7 12.25C4.33333 12.25 2.66667 13.5833 2 16.25C3.33333 14.9167 4.66667 14.5833 6 15.25C6.73156 15.6163 7.27954 16.1644 7.77311 16.6609C8.63354 17.5273 9.60589 18.5 12 18.5C14.6667 18.5 16.3333 17.1667 17 14.5C15.6667 15.8333 14.3333 16.1667 13 15.5C12.2684 15.1337 11.7205 14.5856 11.2269 14.0891C10.3665 13.2227 9.39411 12.25 7 12.25Z" stroke="currentColor" stroke-width="2" stroke-linecap="round" stroke-linejoin="round"/>
</svg> 